<svg xmlns="http://www.w3.org/2000/svg" width="298" height="180" fill="none" viewBox="0 0 298 180"><mask id="mask0_8006_67185" width="353" height="180" x="-38" y="0" maskUnits="userSpaceOnUse" style="mask-type:alpha"><path fill="#162C2A" d="M-38 0h353v180H-38z"/></mask><g mask="url(#mask0_8006_67185)"><path fill="#4E6462" d="m186.513 124.783 12.044 34.412c1.588 4.622 6.376 7.342 11.174 6.347 5.619-1.166 9.005-6.909 7.299-12.373l-11.115-34.715c-1.724-5.523-7.709-8.505-13.171-6.564-5.266 1.87-8.044 7.62-6.231 12.893Z"/><path fill="#8DA3A1" d="m239.116 124.212-5.43-3.62-9.961 11.398c1.872 1.574 4.373 3.357 6.258 4.923l9.133-12.701Z"/><path fill="#8DA3A1" d="m236.382 113.936-.013.138 6.289-8.804a.99.99 0 0 1 1.468-.196l.302.26a.983.983 0 0 1 .209 1.229l-4.465 6.819 6.217-7.125a.987.987 0 0 1 1.474-.102l.209.204a.983.983 0 0 1 .092 1.301l-5.14 6.608 5.005-4.161a.989.989 0 0 1 1.516.258l.062.109a.986.986 0 0 1-.146 1.158l-4.893 4.692 3.072-1.834a.986.986 0 0 1 1.581.538.982.982 0 0 1-.272.931l-11.774 10.582-2.553-2.911a7.653 7.653 0 0 1-1.803-3.832l-.222-1.38a12.172 12.172 0 0 1-.144-1.52c1.486-.549 2.837-1.538 3.929-2.962Z"/><path fill="#000" d="m239.071 102.456 7.912-1.386-.385-2.189-7.912 1.386.385 2.189Z"/><path fill="#4E6462" d="m255.147 124.812-15.636 2.738-3.45-19.601c-.49-2.779 1.375-5.431 4.161-5.919l5.539-.97c2.786-.488 5.446 1.372 5.935 4.151l3.451 19.601ZM236.844 101.411l11.877-2.08-.655-3.721-11.877 2.08.655 3.721Z"/><path fill="#6E8482" d="m238.478 121.683 15.635-2.739-1.936-10.998-15.635 2.739 1.936 10.998Z"/><path fill="#DA651D" d="m244.799 118.558 2.297-.403-1.311-7.447-2.297.402 1.311 7.448Z"/><path fill="#DA651D" d="m241.369 114.147.404 2.292 7.466-1.308-.403-2.291-7.467 1.307Z"/><path fill="#8DA3A1" d="m233.893 111.801 1.99-2.645a1.276 1.276 0 0 1 1.941-.112c.458.482.578 1.191.302 1.796l-1.417 3.798c-1.499.987-2.673 2.23-4.256 2.26-.102-2.074.617-4.005 1.44-5.099v.002Z"/><path fill="#4E6462" d="m215.503 161.9 24.734-29.059-12.86-11.969-27.585 30.605 15.711 10.423Z"/><path fill="#000" d="M208.385 142.178a.236.236 0 0 1-.149-.053.234.234 0 0 1-.03-.329l5.637-6.761a.234.234 0 0 1 .36.299l-5.637 6.76a.23.23 0 0 1-.179.084h-.002Z"/><path fill="#4E6462" d="m177.236 106.077-16.823 5.386c-2.177.765-3.159 4.423-2.64 6.665l9.762 36.886-17.089 76.578 37.401-.908 4.248-20.197 2.338 19.842 15.061-.37-5.826-81.322s7-28.368-3.199-36.386l-13.642-6.176h-9.588l-.003.002Z"/><path fill="#8DA3A1" d="m172.252 107.673 20.056 24.046s-.609-18.15-1.977-24.056l-3.504-1.587h-9.588l-4.985 1.595-.002.002Z"/><mask id="mask1_8006_67185" width="21" height="26" x="172" y="106" maskUnits="userSpaceOnUse" style="mask-type:luminance"><path fill="#fff" d="m172.252 107.675 20.056 24.046s-.608-18.151-1.977-24.057l-3.504-1.586h-9.588l-4.984 1.594-.003.003Z"/></mask><g mask="url(#mask1_8006_67185)"><path fill="#6E8482" d="M194.058 112.457s-7.854 5.085-23.319-1.155l9.575 20.602 12.397 7.431 6.59-11.775-5.248-15.103h.005Z"/></g><path fill="#8DA3A1" d="M181.347 145.381h-4.291a4.144 4.144 0 0 1-4.144-4.133v-7.847c0-.13.105-.234.236-.234h12.107c.13 0 .235.104.235.234v7.847a4.144 4.144 0 0 1-4.143 4.133Zm-7.964-11.745v7.612a3.672 3.672 0 0 0 3.673 3.664h4.291a3.672 3.672 0 0 0 3.673-3.664v-7.612h-11.637Z"/><path fill="#4E6462" d="m155.564 115.728-18.113 31.656a9.679 9.679 0 0 0 2.537 12.574c4.571 3.462 11.136 2.24 14.149-2.632l16.989-27.929-6.186-13.812s.365-5.112-1.698-4.875a10.203 10.203 0 0 0-7.678 5.021v-.003Z"/><path fill="#000" d="M163.833 141.62a.239.239 0 0 1-.12-.033.235.235 0 0 1-.079-.322l4.406-7.242a.235.235 0 0 1 .402.242l-4.407 7.242a.232.232 0 0 1-.199.113h-.003Z"/><path fill="#8DA3A1" d="m162.154 188.97-3.376-5.061 7.358-4.13 2.678 4.418 4.023-.773-7.785 11.699-2.898-6.153Z"/><path fill="#000" d="M163.201 197.897a.234.234 0 0 1-.195-.364l12.545-18.623a.234.234 0 0 1 .389.26l-12.545 18.623a.237.237 0 0 1-.194.102v.002Z"/><path fill="#4E6462" d="m137.365 156.92 18.012 33.273 13.412-12.714-16.235-31.633-15.189 11.074Z"/><path fill="#000" d="M156.815 153.934a.23.23 0 0 1-.205-.122l-4.261-7.857a.235.235 0 0 1 .095-.317.235.235 0 0 1 .317.095l4.261 7.857a.234.234 0 0 1-.205.344h-.002ZM166.362 180.013a.242.242 0 0 1-.169-.072.233.233 0 0 1 .008-.329l2.304-2.183-4.882-10.131a.234.234 0 0 1 .422-.201l4.956 10.283a.237.237 0 0 1-.048.271l-2.427 2.301a.233.233 0 0 1-.161.063l-.003-.002ZM190.517 60.972s8.381.74 10.217 10.768c.793 4.326 1.908 8.954 3.184 15.732 1.174 6.23-3.355 12.041-9.391 12.041h-20.614l10.575-34.651 6.029-3.888v-.002Z"/><path fill="#000" d="M190.517 60.972h-15.483c-8.964 0-16.233 7.645-16.233 17.079v13.546c0 4.37 3.368 7.914 7.522 7.914h16.056l8.138-38.54Z"/><path fill="#8DA3A1" d="M176.195 88.51c1.452 6.568 2.567 15.619-2.85 19.64 0 0 2.43 6.112 14.665 6.112 4.297 0 1.998-6.617 1.998-6.617-2.642-2-3.803-10.85-2.65-15.954l-11.163-3.182Z"/><path fill="#000" d="M187.366 91.692c-.688 2.99-.542 7.39.208 10.814-.883.38-4.507-.865-5.883-1.987-2.713-2.214-3.652-4.169-4.887-8.59-.189-1.163-.312-3.426.158-3.426l10.402 3.187.002.002Z" opacity=".2"/><path fill="#8DA3A1" d="M190.601 86.328c.468 2.665 2.931 4.035 5.601 3.566 2.673-.467 4.34-3.584 3.872-6.25-.468-2.666-2.813-3.457-5.486-2.99a4.9 4.9 0 0 0-3.989 5.671l.002.003Z"/><path fill="#4E6462" d="M198.381 89.558a.997.997 0 0 1-1.954.398.997.997 0 0 1 1.954-.398Z"/><path fill="#8DA3A1" d="M188.512 61.938s10.778.347 9.967 14.47c-.813 14.122-1.867 18.484-7.535 21.457-5.092 2.668-12.219-.317-15.923-6.322-1.452-2.357-2.545-5.903-2.757-8.663l-.844-3.69s-4.447-18.344 17.09-17.255l.002.003Z"/><path fill="#000" d="M191.008 87.977a.248.248 0 0 1-.151-.444l1.187-.903-1.514-2.475a.244.244 0 0 1 .082-.339.246.246 0 0 1 .34.082l1.632 2.663c.066.107.04.25-.062.326l-1.363 1.039a.256.256 0 0 1-.151.05ZM181.687 80.84c.01.818.632 1.474 1.389 1.466.757-.007 1.363-.68 1.352-1.5-.01-.819-.631-1.474-1.388-1.467-.757.008-1.363.682-1.353 1.5Z"/><path fill="#000" d="M179.786 81.744a.368.368 0 0 1-.176-.046.369.369 0 0 1-.151-.502c.043-.082 1.094-1.972 3.856-1.868 2.1.082 3.215 1.06 3.264 1.1a.371.371 0 0 1 .028.525.376.376 0 0 1-.527.031c-.013-.01-.982-.842-2.793-.91-2.281-.09-3.135 1.41-3.171 1.474a.38.38 0 0 1-.33.194v.002ZM195.845 80.36c.008.716-.478 1.303-1.087 1.31-.609.008-1.107-.568-1.118-1.285-.007-.717.479-1.303 1.087-1.311.609-.008 1.108.569 1.118 1.285Z"/><path fill="#000" d="M196.906 81.484a.335.335 0 0 1-.314-.22c-.026-.068-.655-1.719-2.194-1.579a2.689 2.689 0 0 0-1.888 1.049.334.334 0 0 1-.552-.375 3.379 3.379 0 0 1 2.381-1.34c1.644-.15 2.606 1.253 2.882 2.016a.33.33 0 0 1-.315.446v.003ZM189.133 91.058c-.948 0-2.294-.25-3.544-1.385a.246.246 0 0 1-.016-.35.246.246 0 0 1 .351-.015c1.977 1.796 4.22 1.148 4.314 1.12a.247.247 0 0 1 .31.166.247.247 0 0 1-.164.308c-.046.013-.535.159-1.251.159v-.003ZM182.121 73.691s-2.143.215-3.499.883c-1.123.553-1.01 1.431-.013 1.783.619.22 2.387.248 3.568.135 3.727-.354 4.33-1.331 4.202-2.028-.181-.982-2.731-.98-4.258-.773ZM195.589 74.003s1.662.324 2.734 1.054c.887.605.836 1.46.076 1.752-.47.182-1.846.177-2.749-.058-2.939-.76-3.394-1.538-3.322-2.217.102-.954 2.071-.816 3.258-.53h.003Z"/><path fill="#000" d="M191.11 61.567s-.37 17.013-21.214 12.676c0 0-3.251-15.829 21.214-12.676Z"/><path fill="#000" d="M198.522 73.58s-2.873-.898-8.21-9.23c0 0-4.026-5.135 2.261-1.872 6.286 3.265 5.949 11.102 5.949 11.102ZM174.438 70.624s2.688 6.31-.823 12.62l-5.258-6.88 6.081-5.74Z"/><path fill="#8DA3A1" d="M175.156 86.222c-.58 2.643-2.683 3.694-5.332 3.115-2.65-.579-4.184-3.765-3.604-6.408.581-2.643 2.959-3.334 5.609-2.753 2.65.58 3.91 3.406 3.327 6.049v-.003Z"/><path fill="#000" d="M172.447 86.79a.252.252 0 0 1-.24-.184c-.348-1.316-.9-2.196-1.647-2.614-.724-.406-1.366-.222-1.391-.212a.252.252 0 0 1-.31-.166.247.247 0 0 1 .164-.309c.036-.01.857-.255 1.767.248.872.482 1.512 1.467 1.895 2.926a.247.247 0 0 1-.24.311h.002Z"/><path fill="#4E6462" d="M169.926 89.123a.996.996 0 0 0 1.934.48.996.996 0 0 0-1.934-.48Z"/><path fill="#8DA3A1" d="M229.729 69.178h58.903A4.363 4.363 0 0 0 293 64.82V38.858a4.363 4.363 0 0 0-4.368-4.357h-58.903a4.363 4.363 0 0 0-4.368 4.357V64.82a4.363 4.363 0 0 0 4.368 4.358Z"/><path fill="#DA651D" d="M238.811 40.488c2.377-5.725-.348-12.288-6.087-14.66-5.74-2.37-12.319.348-14.697 6.073-2.377 5.724.348 12.287 6.088 14.659 5.739 2.37 12.319-.348 14.696-6.072Z"/><path fill="#fff" d="M234.882 36.578v-1.27a1.12 1.12 0 0 0-1.122-1.12h-10.683c-.62 0-1.123.501-1.123 1.12v1.27c0 .619.503 1.12 1.123 1.12h10.683a1.12 1.12 0 0 0 1.122-1.12Z"/><path fill="#fff" d="M229.056 29.497h-1.273c-.62 0-1.123.502-1.123 1.12v10.656c0 .618.503 1.12 1.123 1.12h1.273c.62 0 1.123-.502 1.123-1.12V30.617c0-.619-.503-1.12-1.123-1.12Z"/><path fill="#8DA3A1" d="m244.878 69.07-14.123 10.314c-.68.495-1.568-.252-1.192-1.005l4.678-9.309s6.166-4.663 10.634 0h.003Z"/><path fill="#2D2745" d="M274.509 43.312h-26.143c-.493 0-.493-.765 0-.765h26.143c.494 0 .494.765 0 .765ZM256.53 49.2h-8.161c-.494 0-.494-.765 0-.765h8.161c.493 0 .493.766 0 .766ZM274.509 49.2h-12.443c-.493 0-.493-.765 0-.765h12.443c.493 0 .493.766 0 .766ZM262.855 55.094c-4.829.028-9.658.028-14.489 0-.493-.003-.493-.768 0-.765 4.829.028 9.658.028 14.489 0 .493-.003.493.762 0 .765ZM274.509 55.094h-6.016c-.493 0-.493-.765 0-.765h6.016c.493 0 .493.765 0 .765ZM274.509 60.987H255.609c-.494 0-.494-.765 0-.765h18.9c.494 0 .494.765 0 .765Z"/><path fill="#6E8482" d="m113.341 130.87 8.464-8.443a3.018 3.018 0 0 0 .888-2.135v-3.135a3.02 3.02 0 0 1 1.796-2.759l2.365-1.049c.338-.149.647-.362.912-.623l2.16-2.155a3.032 3.032 0 0 1 3.956-.28l1.174.879a3.02 3.02 0 0 1 1.131 1.727l1.234 5.257a3.022 3.022 0 0 1-1.182 3.143l-5.238 3.745-2.998 1.955a3.03 3.03 0 0 0-.669.594l-8.8 10.535-5.193-7.253v-.003Z"/><path fill="#fff" d="m113.341 130.87 8.464-8.443a3.015 3.015 0 0 0 .888-2.135v-3.135a3.02 3.02 0 0 1 1.796-2.759l2.365-1.048a3.07 3.07 0 0 0 .912-.624l2.16-2.154a3.033 3.033 0 0 1 3.956-.281l1.174.88a3.02 3.02 0 0 1 1.131 1.727l1.234 5.256a3.022 3.022 0 0 1-1.182 3.143l-5.238 3.745-2.998 1.956a3.051 3.051 0 0 0-.669.593l-8.8 10.535-5.193-7.253v-.003Z" opacity=".3"/><path fill="#6E8482" d="M71.4 94.064s11.684 1.054 19.605 20.225c7.921 19.171 12.208 20.206 14.933 18.654 1.581-.902 3.82-2.501 5.42-3.685a2.586 2.586 0 0 1 3.555.463l4.969 6.196c.754.939.762 2.271.011 3.211-2.951 3.69-10.79 12.101-19.408 9.788-11.68-3.132-20.224-19.688-20.817-24.779-.592-5.09-8.268-30.073-8.268-30.073Z"/><path fill="#4E6462" d="M71.4 94.064s11.684 1.055 19.605 20.226c7.921 19.171 12.208 20.206 14.933 18.653 1.581-.901 3.82-2.5 5.42-3.685a2.586 2.586 0 0 1 3.555.463l4.969 6.196c.754.94.762 2.272.011 3.211-2.951 3.691-10.79 12.101-19.408 9.789-11.68-3.132-20.224-19.689-20.817-24.779-.592-5.09-8.268-30.074-8.268-30.074Z" opacity=".6"/><path fill="#000" d="M77.321 42.826s8.803-5.33 8.953-1.157c.15 4.172-9.215 8.66-13.177 8.121l4.224-6.964Z"/><path fill="#000" d="M77.321 42.828s8.803-5.33 8.953-1.158c.15 4.173-9.215 8.661-13.177 8.122l4.224-6.964Z" opacity=".4"/><path fill="#6E8482" d="M42.919 94.684s.366-.136 1.117-.324v5.613l25.857-1.315 1.18-4.135c.366.055.726.104 1.1.161l3.378 2.506s7.164 15.543 8.89 54.144v50.258H29.414L42.919 94.684Z"/><path fill="#8DA3A1" d="M50.352 90.591c2.222-6.863 1.755-16.711 1.01-22.875l14.92 14.71c-.88 2.664-1.358 5.532-.943 8.18.208 1.323 1.609 2.892 2.941 3.041l2.452 1.967.947 1.116-.497 4.252-5.55.749-12.017-.749-11.597-5.728s.705-1.332 4.49-1.601c1.41-.101 3.41-1.719 3.846-3.062h-.002Z"/><path fill="#000" d="m57.431 74.85 8.596 8.4c-.459 1.565-.762 3.183-.822 4.774-3.503-.804-7.8-4.097-8.904-8.057-.726-2.44.197-4.91 1.13-5.12v.003Z" opacity=".2"/><path fill="#8DA3A1" d="M49.113 56.585c.639 11.306.453 17.948 6.151 23.763 8.56 8.764 22.573 3.614 25.309-7.623 2.477-10.192.989-26.92-10.078-31.457-7.883-3.28-16.94.436-20.228 8.298a15.396 15.396 0 0 0-1.154 7.016v.003Z"/><path fill="#000" d="M70.647 73.861a7.683 7.683 0 0 1-4.907-3.54.269.269 0 0 1 .104-.36.277.277 0 0 1 .36.117 7.373 7.373 0 0 0 5.527 3.445.27.27 0 0 1 .26.276.27.27 0 0 1-.276.258c-.011 0-.025 0-.036-.002a7.862 7.862 0 0 1-1.035-.191l.003-.003ZM66.823 59.92c0 .926.477 1.675 1.084 1.675.606 0 1.092-.74 1.094-1.666 0-.927-.48-1.662-1.086-1.662-.606 0-1.092.74-1.092 1.653ZM77.239 59.966c0 .913.48 1.661 1.087 1.661.606 0 1.092-.74 1.092-1.653 0-.912-.478-1.675-1.084-1.675-.606 0-1.092.741-1.095 1.664v.003ZM62.902 54.727a.66.66 0 0 1-.24-.136.565.565 0 0 1 .125-.757 5.449 5.449 0 0 1 4.874-.82.544.544 0 1 1-.393 1.013 4.305 4.305 0 0 0-3.848.692.533.533 0 0 1-.518.008ZM82.03 54.768a.527.527 0 0 1-.513-.069 4.323 4.323 0 0 0-3.822-.691.54.54 0 1 1-.396-1.005 5.418 5.418 0 0 1 4.887.814c.238.163.298.49.134.73-.003.006-.006.008-.008.014a.525.525 0 0 1-.281.207Z"/><path fill="#fff" d="m47.59 63.22.507.506 1.682-1.678a8.03 8.03 0 0 1 5.712-2.358h5.215c.189 2.92 2.608 5.243 5.581 5.243 3.028 0 5.489-2.41 5.598-5.407a.918.918 0 0 1 1.15 0c.106 2.996 2.566 5.407 5.594 5.407 3.028 0 5.617-2.514 5.617-5.603 0-3.088-2.52-5.602-5.617-5.602-2.886 0-5.242 2.19-5.554 4.987a1.666 1.666 0 0 0-1.234 0c-.311-2.797-2.667-4.987-5.554-4.987-2.973 0-5.39 2.323-5.58 5.243H55.49a8.759 8.759 0 0 0-6.22 2.568l-1.682 1.678v.003Zm26.143-3.89c0-2.693 2.198-4.886 4.899-4.886 2.7 0 4.898 2.193 4.898 4.886 0 2.694-2.198 4.886-4.898 4.886-2.7 0-4.899-2.192-4.899-4.886Zm-12.341 0c0-2.693 2.198-4.886 4.898-4.886 2.7 0 4.899 2.193 4.899 4.886 0 2.694-2.198 4.886-4.899 4.886-2.7 0-4.898-2.192-4.898-4.886Z"/><path fill="#000" d="M50.496 40.806c2.485-4.107 7.086-6.858 11.889-7.111 3.386-.18 7.083.738 9.974-1.027 1.062-.648 1.9-1.607 2.927-2.312 1.027-.706 2.4-1.136 3.509-.575 3.738 1.89 6.31 6.934 5.368 11.009-.898 3.894-4.399 7.127-8.27 8.151-5.137 1.36-10.685-.231-15.92.678-2.812.49-4.625 3.604-5.33 6.363-.122.482-.867 1.146-1.19 1.525 0 2.388-.052 5.33-.052 7.721-1.089-2.192-3.555-3.892-5.977-3.513 1.39 4.58 2.952 9.725 4.342 14.31-5.125-5.663-8.773-12.53-10.029-20.054-.552-3.304-.265-6.771.972-9.884 1.237-3.113 4.442-5.534 7.79-5.281h-.003Z"/><path fill="#8DA3A1" d="M43.535 67.1a10.836 10.836 0 0 0 6.697 4.772c3.697.811 5.347-2.517 4.154-5.894-1.068-3.026-4.285-7.114-7.905-6.433-3.62.68-4.773 4.562-2.946 7.555Z"/><path fill="#000" d="m73.665 68.88.011.003c.116.025 2.822.607 4.386-.986a.282.282 0 0 0 .001-.392c-2.236-2.333-4.445-7.298-4.467-7.348a.286.286 0 0 0-.373-.145.284.284 0 0 0-.145.373c.09.2 2.148 4.832 4.38 7.3-1.377 1.142-3.638.654-3.66.65a.283.283 0 0 0-.337.215.28.28 0 0 0 .204.333v-.003Z"/><path fill="#6E8482" d="M68.28 93.646s2.138 5.096-3.41 5.744c-5.549.648-17.18-6.093-17.18-6.093l-2.783.352s.778 9.758 13.073 13.299c0 0 3.55-4.576 7.1-4.663 3.55-.087 8.224 3.712 8.224 3.712s2.269-6.03-3.714-12.253l-1.308-.095-.002-.003Z"/><path fill="#6E8482" d="M68.28 93.646s7.793 3.282 10.65 24.267c2.855 20.985 3.896 60.362 3.115 78.757-.778 18.395-1.819 30.31 3.896 29.534 0 0 .519-29.534 0-62.435-.519-32.9 2.856-69.516-17.66-70.12v-.003Z"/><path fill="#4E6462" d="M68.28 93.645s7.793 3.282 10.65 24.267c2.855 20.985 3.896 60.362 3.115 78.757-.778 18.395-1.819 30.31 3.896 29.534 0 0 .519-29.534 0-62.435-.519-32.9 2.856-69.516-17.66-70.12v-.003Z" opacity=".8"/><path fill="#6E8482" d="M44.905 93.648s9.349 5.18 10.39 37.996c1.037 32.816.693 94.99-10.39 96.027-11.08 1.035-23.201-5.18-23.201-5.18s.79-11.902 2.856-26.979c1.726-12.591 4.661-27.399 5.802-39.342 1.32-13.809-6.233-51.813-1.384-55.612 4.85-3.8 15.93-6.91 15.93-6.91h-.003Z"/><path fill="#4E6462" d="M44.904 93.649s9.35 5.18 10.39 37.996c1.038 32.816.694 94.99-10.39 96.027-11.08 1.035-23.2-5.18-23.2-5.18s.789-11.902 2.856-26.979c1.725-12.591 4.66-27.399 5.802-39.342 1.319-13.809-6.234-51.813-1.384-55.612 4.849-3.8 15.93-6.91 15.93-6.91h-.004Z" opacity=".8"/><path fill="#6E8482" d="m45.891 186.988-8.694-1.246a3.394 3.394 0 0 1-2.882-3.839l.28-1.941 15.424 2.212-.28 1.943a3.4 3.4 0 0 1-3.848 2.874v-.003Z"/><path fill="#fff" d="m45.891 186.988-8.694-1.246a3.394 3.394 0 0 1-2.881-3.839l.28-1.941 15.424 2.212-.28 1.943a3.4 3.4 0 0 1-3.849 2.874v-.003Z" opacity=".6"/><path fill="#1A2E35" d="M57.133 171.152h22.062c.84 0 1.595-.681 1.682-1.52l3.555-33.75c.087-.839-.522-1.52-1.362-1.52H61.007c-.84 0-1.594.681-1.682 1.52l-3.555 33.75c-.087.839.522 1.52 1.363 1.52Z"/><path fill="#4E6462" d="M57.134 171.152h22.062c.841 0 1.595-.681 1.682-1.52l3.555-33.75c.087-.839-.521-1.52-1.362-1.52H61.008c-.84 0-1.594.681-1.681 1.52l-3.556 33.75c-.087.839.522 1.52 1.363 1.52Z" opacity=".5"/><path fill="#1A2E35" d="M69.115 137.04H74.4c1.051 0 1.993-.85 2.105-1.898l.328-3.111h-9.09l-.328 3.111c-.109 1.048.653 1.898 1.704 1.898h-.002Z"/><path fill="#6E8482" d="M69.116 137.038h5.283c1.051 0 1.993-.85 2.105-1.898l.328-3.111h-9.09l-.328 3.111c-.109 1.048.653 1.898 1.704 1.898h-.002Z" opacity=".7"/><path fill="#1A2E35" d="M59.97 134.364h1.037c-.841 0-1.595.681-1.682 1.52l-3.555 33.75c-.088.839.521 1.52 1.362 1.52h-1.037c-.841 0-1.45-.681-1.363-1.52l3.555-33.75c.088-.839.841-1.52 1.682-1.52Z"/><path fill="#6E8482" d="M59.968 134.364h1.038c-.841 0-1.595.681-1.682 1.52l-3.555 33.75c-.088.839.521 1.52 1.362 1.52h-1.037c-.841 0-1.45-.681-1.363-1.52l3.555-33.75c.087-.839.841-1.52 1.682-1.52Z" opacity=".7"/><path fill="#6E8482" d="m36.864 148.334 12.292 2.765 5.445-3.228a3.154 3.154 0 0 1 2.072-.408l4.426.645a3.16 3.16 0 0 1 2.319 1.615l.98 1.806a3.14 3.14 0 0 1 .338 2.018l-.347 2.073a3.148 3.148 0 0 1-2.356 2.538l-7.479 1.847a3.163 3.163 0 0 1-1.772-.074l-5.185-1.751-14.892-1.727 4.156-8.116.003-.003Z"/><path fill="#fff" d="m36.863 148.334 12.293 2.765 5.445-3.228a3.154 3.154 0 0 1 2.072-.408l4.426.645a3.16 3.16 0 0 1 2.318 1.615l.98 1.806a3.14 3.14 0 0 1 .34 2.018l-.348 2.073a3.148 3.148 0 0 1-2.356 2.538l-7.479 1.847a3.163 3.163 0 0 1-1.772-.074l-5.185-1.751-14.892-1.727 4.156-8.116.002-.003Z" opacity=".3"/><path fill="#4E6462" d="M36.892 156.286a3.045 3.045 0 0 1-3.244 2.152c-3.902-.409-11.241-1.904-16.533-7.365-7.53-7.773 2.922-37.408 7.012-44.819 4.576-8.29 11.66-9.488 11.66-9.488 9.119-3.119 7.82 5.343 5.223 15.706-2.597 10.363-12.468 25.389-12.727 28.238-.167 1.83 5.453 3.979 9.499 5.284 1.862.599 2.698 2.764 1.693 4.436a25.72 25.72 0 0 0-2.586 5.853l.003.003Z"/><path fill="#4E6462" d="M36.892 156.288a3.043 3.043 0 0 1-3.244 2.151c-3.901-.408-11.24-1.904-16.533-7.364-7.53-7.773 2.922-37.408 7.012-44.819 4.577-8.29 11.66-9.489 11.66-9.489 9.12-3.118 7.82 5.344 5.223 15.707-2.597 10.363-12.467 25.389-12.727 28.238-.167 1.83 5.453 3.979 9.5 5.283 1.861.599 2.697 2.765 1.692 4.437a25.7 25.7 0 0 0-2.586 5.853l.003.003Z" opacity=".6"/><path fill="#6E8482" d="M127.136 102.806h4.172a2.274 2.274 0 0 1 2.277 2.271v.033c0 .877-.502 1.626-1.231 2.007v18.934a2.614 2.614 0 0 1-2.619 2.612h-1.032a2.613 2.613 0 0 1-2.618-2.612v-18.934a2.259 2.259 0 0 1-1.229-2.007v-.033a2.273 2.273 0 0 1 2.277-2.271h.003Z"/><path fill="#fff" d="M127.136 102.805h4.172a2.275 2.275 0 0 1 2.277 2.272v.032c0 .877-.502 1.626-1.231 2.008v18.934a2.614 2.614 0 0 1-2.619 2.612h-1.032a2.614 2.614 0 0 1-2.618-2.612v-18.934a2.26 2.26 0 0 1-1.229-2.008v-.032a2.273 2.273 0 0 1 2.277-2.272h.003Z" opacity=".6"/><path fill="#6E8482" d="M132.712 103.301c-.421.338-1.816.586-3.49.586-1.673 0-3.071-.248-3.489-.586a2.263 2.263 0 0 1 1.406-.495h4.172c.533 0 1.016.19 1.406.495h-.005Z"/><path fill="#DA651D" d="M129.223 113.155c1.079 0 1.95-.277 1.972-.618v13.517c0 .801-.653 1.449-1.456 1.449h-1.032a1.454 1.454 0 0 1-1.455-1.449v-13.517c.022.343.89.618 1.971.618Z"/><path fill="#DA651D" d="M127.245 112.523c0 .349.885.632 1.977.632s1.977-.283 1.977-.632c0-.349-.885-.632-1.977-.632s-1.977.283-1.977.632Z"/><path fill="#000" d="M127.245 112.523c0 .349.885.632 1.977.632s1.977-.283 1.977-.632c0-.348-.885-.631-1.977-.631s-1.977.283-1.977.631Z" opacity=".3"/><path fill="#fff" d="M131.22 107.386v18.67c0 .746-1.163.749-1.163 0v-18.67c0-.746 1.163-.749 1.163 0Z" opacity=".8"/></g></svg>