<svg xmlns="http://www.w3.org/2000/svg" width="275" height="180" fill="none" viewBox="0 0 275 180"><g clip-path="url(#clip0_8006_66831)"><path fill="#4E6462" d="M189.372 116.87s3.863 12.533 45.047 35.265l12.005-12.267-37.503-27.953-19.549 4.958v-.003Z"/><path fill="#6E8482" d="m246.636 136.613 7.095-29.2-6.3-.788-8.789 22.404a137.599 137.599 0 0 0 7.994 7.584Z"/><path fill="#6E8482" d="m246.813 105.716.129-1.642a14.102 14.102 0 0 1 2.016-6.229l2.03-3.326a1.5 1.5 0 0 1 2.262-.353c.592.51.814 1.33.56 2.069l-1.345 3.909 10.75-9.379a1.163 1.163 0 0 1 1.733.182l.273.382c.319.451.277 1.063-.101 1.463l-7.003 6.569 9.091-6.434a1.163 1.163 0 0 1 1.715.29l.182.292a1.156 1.156 0 0 1-.256 1.513l-7.714 6.139 6.884-3.376a1.16 1.16 0 0 1 1.662.711l.04.145a1.155 1.155 0 0 1-.489 1.284l-6.9 4.017 4.025-1.249a1.159 1.159 0 0 1 1.091 2.04l-17.52 9.9-2.114-4.035a8.97 8.97 0 0 1-.999-4.882h-.002Z"/><path fill="#000" d="M252.537 106.832a.216.216 0 0 1-.199-.298c1.488-3.553-.042-6.252-.058-6.281a.215.215 0 0 1 .077-.293.212.212 0 0 1 .293.077c.069.116 1.657 2.904.085 6.663a.216.216 0 0 1-.198.132Z"/><path fill="#4E6462" d="m231.38 141.245 9.962-26.769 12.819 3.835-6.176 29.036c-1.519 5.177-7.29 7.805-12.205 5.557-4.427-2.025-6.39-7.228-4.398-11.659h-.002Z"/><path fill="#4E6462" d="M231.38 141.489a.242.242 0 0 1-.23-.321l3.583-10.394a.243.243 0 0 1 .309-.15.242.242 0 0 1 .151.308l-3.583 10.394a.245.245 0 0 1-.23.163ZM196.726 106.002s5.705.119 13.995 7.42c5.951 5.24 16.745 37.827 19.731 117.604.212 5.635-4.415 10.325-10.057 10.717l-19.127 1.332-4.545-137.073h.003Z"/><path fill="#4E6462" d="M222.155 146.519a.244.244 0 0 1-.238-.198c-.023-.119-2.322-12.062-5.224-20.555a.244.244 0 0 1 .151-.308.246.246 0 0 1 .309.15c2.915 8.527 5.219 20.499 5.243 20.621a.243.243 0 0 1-.193.284c-.016.003-.032.006-.045.006h-.003ZM214.116 135.797a.243.243 0 0 1-.243-.243v-15.19l-4.291-3.511a.242.242 0 0 1-.037-.338l1.107-1.394-7.407-6.69a.24.24 0 0 1-.016-.342.24.24 0 0 1 .344-.016l7.576 6.843a.238.238 0 0 1 .026.329l-1.102 1.384 4.194 3.434c.056.045.09.116.09.187v15.304a.242.242 0 0 1-.243.243h.002ZM217.066 156.33c8.023 31.712 6.673 98.539 6.673 98.539l-55.348 2.952s9.846-78.369 25.479-101.491H217.066Z"/><path fill="#8DA3A1" d="M192.07 88.622c1.501 6.787 1.35 15.591-2.944 20.294 0 0 2.511 6.315 15.153 6.315 1.509 0-1.187-6.853-1.187-6.853-.922-2.378-.267-11.371.513-16.469l-11.535-3.287Z"/><path fill="#000" d="M203.611 91.917c-.579 2.96-.796 7.396-.97 11.163-.912.392-3.475-.883-4.894-2.043-2.804-2.288-3.774-4.307-5.05-8.875-.196-1.202-.322-3.54.164-3.54l10.747 3.292.003.003Z" opacity=".2"/><path fill="#000" d="M192.179 98.09c.872-5.29-2.719-10.282-8.022-11.152-5.302-.87-10.308 2.712-11.18 8.001-.872 5.29 2.72 10.282 8.022 11.152 5.302.87 10.308-2.712 11.18-8.001Z"/><path fill="#000" d="M175.158 77.261c-.248 10.264 12.497 18.591 18.186 18.728 10.29.248 18.826-7.565 19.074-17.829.249-10.264-7.904-18.448-18.178-19.033-10.438-.596-18.833 7.87-19.082 18.132v.002Z"/><path fill="#4E6462" d="M204.786 86.237c.423 2.804 2.97 4.304 5.782 3.882 2.814-.421 4.643-3.65 4.22-6.455-.423-2.805-2.862-3.695-5.676-3.274a5.139 5.139 0 0 0-4.326 5.847Z"/><path fill="#8DA3A1" d="M203.217 60.607s11.292.63 10.089 15.132c-1.202 14.5-2.415 18.96-8.432 21.87-5.407 2.615-12.806-.635-16.537-6.903-1.467-2.462-2.521-6.134-2.674-8.978l-.793-3.814s-4.207-18.976 18.347-17.304v-.003Z"/><path fill="#000" d="m188.635 69.862-.591 14.07-8.726-7.538 4.098-4.69 5.219-1.842Z"/><path fill="#8DA3A1" d="M188.579 86.112c-.677 2.757-2.894 3.427-5.655 2.752-2.764-.675-4.292-4.054-3.615-6.811.676-2.757 3.187-3.421 5.951-2.744 2.764.675 3.998 4.049 3.321 6.806l-.002-.003Z"/><path fill="#0A0A0A" d="M185.532 86.409a.258.258 0 0 1-.256-.222c-.217-1.433-.703-2.424-1.445-2.941-.717-.501-1.417-.367-1.425-.364a.26.26 0 1 1-.103-.509c.037-.008.928-.179 1.826.448.864.602 1.422 1.709 1.662 3.29a.259.259 0 0 1-.219.295c-.013 0-.026.003-.04.003Z"/><path fill="#000" d="m193.416 59.128 12.269.224c6.593.158 11.852 5.636 11.606 12.21-.005.11-.008.22-.016.332l-33.845-.818s-3.177-12.267 9.983-11.948h.003Z"/><path fill="#8DA3A1" d="M195.691 72.116s1.102-3.184-.991-6.123c0 0 .626 4.55-.775 6.081l1.768.042h-.002Z"/><path fill="#0A0A0A" d="M204.455 87.582a.256.256 0 0 1-.253-.209.258.258 0 0 1 .203-.305l1.443-.296-1.266-2.962a.26.26 0 0 1 .478-.203l1.393 3.255a.26.26 0 0 1-.185.356l-1.757.361c-.019.003-.035.005-.053.005l-.003-.002Z"/><path fill="#000" d="M196.219 72.568s-2.252.169-3.692.835c-1.192.554-1.097 1.476-.058 1.87.642.244 2.497.318 3.739.231 3.916-.277 4.574-1.286 4.458-2.022-.166-1.033-2.838-1.096-4.447-.917v.003ZM210.333 73.235s1.733.383 2.84 1.173c.917.657.838 1.553.037 1.84-.496.18-1.939.137-2.883-.132-3.062-.87-3.52-1.697-3.424-2.406.132-1 2.193-.804 3.43-.475Z"/><path fill="#fff" d="m206.042 89.513-6.874-.166s.008 2.788 3.267 2.86c3.488.073 3.609-2.694 3.609-2.694h-.002Z"/><path fill="#FBFCFC" d="M196.903 87.133h-.148c-3.279-.08-5.882-2.805-5.803-6.076.08-3.27 2.809-5.87 6.091-5.788 1.589.04 3.066.69 4.162 1.84a5.887 5.887 0 0 1 1.641 4.236 5.876 5.876 0 0 1-1.844 4.151 5.915 5.915 0 0 1-4.099 1.637Zm-5.515-6.065.436.01c-.068 2.792 2.154 5.117 4.953 5.185a5.056 5.056 0 0 0 3.622-1.394 5.022 5.022 0 0 0 1.573-3.543 5.03 5.03 0 0 0-1.398-3.614 5.048 5.048 0 0 0-3.552-1.568c-2.793-.066-5.129 2.148-5.198 4.94l-.436-.01v-.006ZM210.901 87.47h-.146a5.916 5.916 0 0 1-4.162-1.84 5.895 5.895 0 0 1-1.641-4.236 5.889 5.889 0 0 1 1.845-4.152 5.91 5.91 0 0 1 4.246-1.637c3.28.08 5.883 2.805 5.803 6.076-.079 3.22-2.729 5.788-5.943 5.788h-.002Zm-.006-10.995a5.048 5.048 0 0 0-3.498 1.397 5.022 5.022 0 0 0-1.573 3.543 5.033 5.033 0 0 0 1.398 3.613 5.048 5.048 0 0 0 3.552 1.569c2.798.068 5.129-2.148 5.198-4.94.068-2.791-2.154-5.116-4.952-5.185h-.127l.002.003Z"/><path fill="#FBFCFC" d="M205.145 81.766a2.562 2.562 0 0 0-2.532-.05l-.409-.767c1.82-.968 3.366.052 3.43.094l-.489.723ZM188.214 80.415l-.021.87 3.221.077.021-.87-3.221-.077Z"/><path fill="#000" d="M196.155 80.975c.011.839.645 1.51 1.422 1.503.774-.008 1.395-.696 1.384-1.534-.01-.838-.644-1.51-1.421-1.502-.774.007-1.395.695-1.385 1.534Z"/><path fill="#000" d="M194.21 81.903a.381.381 0 0 1-.182-.048.381.381 0 0 1-.156-.514c.045-.081 1.118-2.021 3.948-1.91 2.148.081 3.29 1.083 3.337 1.125.159.14.172.382.029.538a.386.386 0 0 1-.539.031c-.015-.013-1.009-.862-2.859-.933-2.336-.09-3.208 1.445-3.245 1.51a.382.382 0 0 1-.336.198l.003.003ZM210.647 80.487c.008.733-.488 1.334-1.112 1.342-.624.008-1.134-.583-1.144-1.315-.008-.733.489-1.334 1.112-1.342.624-.008 1.134.582 1.144 1.315Z"/><path fill="#000" d="M211.734 81.633a.344.344 0 0 1-.323-.224c-.026-.07-.668-1.76-2.246-1.618a2.742 2.742 0 0 0-1.932 1.073.343.343 0 0 1-.568-.383 3.455 3.455 0 0 1 2.437-1.37c1.683-.153 2.666 1.284 2.951 2.064a.342.342 0 0 1-.319.458Z"/><path fill="#6E8482" d="M208.97 118.016s6.009 11.645 7.951 39.092l-26.111-.63-1.749-38.945 11.896-6.052 8.013 6.532v.003Z"/><path fill="#8DA3A1" d="m203.093 108.379 5.877 9.637-19.909-.48v-8.722l8.218-3.758 5.814 3.323Z"/><path fill="#6E8482" d="M208.969 118.016s11.667 8.532 4.656 26.053l-5.946-20.365 1.287-5.688h.003Z"/><path fill="#4E6462" d="M189.06 108.813s12.793 10.71 14.867 38.85c1.589 21.535 2.104 66.216 1.752 87.429-.097 5.862-4.793 10.607-10.67 10.723l-34.443.675 28.183-96.752-12.251-32.901a2.486 2.486 0 0 1 1.107-3.031l11.455-4.993Z"/><path fill="#4E6462" d="M201.538 133.225c-.05 0-.1-.016-.145-.047l-14.656-10.915a.246.246 0 0 1-.074-.301l2.046-4.257-4.059-.92a.242.242 0 0 1-.159-.353l4.355-7.733a.243.243 0 0 1 .423.237l-4.197 7.451 4.038.918a.243.243 0 0 1 .164.342l-2.09 4.352 14.494 10.794c.109.079.13.232.05.34a.245.245 0 0 1-.195.098l.005-.006ZM177.436 113.911s-11.561 9.927-25.825 54.67l14.415 5.644 19.357-42.016-7.947-18.298Z"/><path fill="#8DA3A1" d="m174.318 136.924 5.436 51.115 35.225-4.579-4.847-50.479-35.814 3.943Z"/><path fill="#091211" d="m185.336 134.225.483 3.925 12.753-1.526-.486-3.936-12.75 1.537Z"/><path fill="#6E8482" d="m175.038 164.048 27.184 3.01-.6 7.724-25.487 1.001-1.097-11.735Z"/><path fill="#6E8482" d="M200.769 165.577s14.088-8.633 15.641-2.974c1.554 5.66 3.848 19.556-14.79 12.175l-.851-9.204v.003Z"/><path fill="#6E8482" d="m199.567 168.192 2.143-4.794a9.278 9.278 0 0 1 3.422-4.244l2.854-1.927a1.794 1.794 0 0 1 2.206.158c.666.606.775 1.613.254 2.349l-3.348 4.721-7.531 3.74v-.003Z"/><path fill="#4E6462" d="m161.719 159.782 26.674 4.057.341 13.725-29.755-.343c-5.388-.469-9.104-1.908-7.859-7.159 1.121-4.726 5.851-11.358 10.599-10.28Z"/><path fill="#4E6462" d="M172.639 161.489h-.032l-10.919-1.466a.244.244 0 1 1 .066-.482l10.919 1.465c.132.019.227.14.209.275a.244.244 0 0 1-.241.21l-.002-.002Z"/><path fill="#fff" d="m273.59 56.162-13.027 18.435c-2.516 3.561-7.452 4.412-11.023 1.903a7.837 7.837 0 0 1-3.234-5.103 7.838 7.838 0 0 1 1.326-5.891L260.66 47.07c2.516-3.561 7.452-4.413 11.022-1.903a7.835 7.835 0 0 1 3.235 5.103 7.834 7.834 0 0 1-1.327 5.89Z"/><path fill="#DA651D" d="m273.59 56.162-6.543 9.26c-4.915-.833-10.67-4.653-12.956-9.055l6.569-9.296c2.516-3.561 7.452-4.413 11.022-1.903a7.839 7.839 0 0 1 3.235 5.103 7.838 7.838 0 0 1-1.327 5.89Z"/><path fill="#fff" d="M258.308 54.984c1.097-1.55 2.191-3.1 3.287-4.653.555-.785 1.065-1.642 1.771-2.306a6.123 6.123 0 0 1 2.246-1.339 6.071 6.071 0 0 1 2.928-.255c.499.084.713-.678.211-.762a7.008 7.008 0 0 0-5.343 1.294c-.843.635-1.416 1.44-2.019 2.293l-1.689 2.388-2.077 2.94c-.293.416.394.811.685.397v.003Z"/><path fill="#8DA3A1" d="m33.05 111.549-4.404-5.395-6.166 3.861s2.823 3 6.237 7.204l4.334-5.67Z"/><path fill="#4E6462" d="M88.087 111.98c-.256.545-.428.875-.642 1.294l-.613 1.165a92.143 92.143 0 0 1-3.956 6.65c-1.884 2.881-3.908 5.704-6.242 8.409-2.328 2.699-4.933 5.314-8.07 7.652-1.583 1.157-3.303 2.24-5.211 3.163l-1.464.656-1.546.569c-.52.182-1.075.322-1.612.475l-.407.11c-.116.035-.396.09-.586.13-.428.092-.843.15-1.256.192-1.651.171-3.15.032-4.45-.224a20.246 20.246 0 0 1-3.506-1.041c-2.09-.833-3.81-1.83-5.41-2.86-3.16-2.075-5.79-4.341-8.292-6.656-2.492-2.314-4.807-4.707-7.024-7.156a160.039 160.039 0 0 1-3.277-3.706 117.77 117.77 0 0 1-3.202-3.891l10.755-8.321c.835 1.057 1.839 2.267 2.798 3.384a119.293 119.293 0 0 0 2.981 3.353c2.035 2.183 4.13 4.281 6.276 6.216 2.143 1.919 4.379 3.679 6.52 5.002 1.059.649 2.108 1.184 2.956 1.487.835.322 1.464.306 1.274.261-.021 0-.045.003-.09.003 0-.006-.082.023-.01 0l.158-.058c.214-.082.423-.129.642-.219l.658-.277.674-.343c.907-.49 1.84-1.12 2.767-1.855 1.855-1.5 3.67-3.416 5.33-5.572 1.673-2.143 3.224-4.51 4.643-6.975a75.069 75.069 0 0 0 2.936-5.691l.428-.949c.127-.29.293-.672.357-.84l14.719 6.465-.006-.002Z"/><path fill="#4E6462" d="M88.087 111.98c-.256.545-.428.875-.642 1.294l-.613 1.165a92.06 92.06 0 0 1-3.956 6.65c-1.884 2.881-3.908 5.704-6.241 8.409-2.329 2.699-4.934 5.314-8.07 7.652-1.584 1.157-3.304 2.24-5.212 3.163l-1.464.656-1.546.569c-.52.182-1.075.322-1.612.475l-.407.11c-.116.035-.396.09-.586.13-.428.092-.843.15-1.255.192-1.652.171-3.15.032-4.45-.224a20.244 20.244 0 0 1-3.507-1.041c-2.09-.833-3.81-1.83-5.41-2.86-3.16-2.075-5.79-4.341-8.292-6.656-2.492-2.314-4.807-4.707-7.024-7.156a160.274 160.274 0 0 1-3.277-3.706 117.77 117.77 0 0 1-3.202-3.891l10.755-8.321c.835 1.057 1.84 2.267 2.798 3.384a119.451 119.451 0 0 0 2.981 3.353c2.035 2.183 4.13 4.281 6.276 6.216 2.143 1.919 4.379 3.679 6.52 5.002 1.06.649 2.108 1.184 2.956 1.487.836.322 1.464.306 1.274.261-.021 0-.045.003-.09.003 0-.006-.082.023-.01 0l.158-.058c.214-.082.423-.129.642-.219l.658-.277.674-.343c.907-.49 1.84-1.12 2.767-1.855 1.855-1.5 3.67-3.416 5.33-5.572 1.673-2.143 3.224-4.51 4.643-6.975a75.069 75.069 0 0 0 2.936-5.691l.428-.949c.127-.29.293-.672.357-.84l14.719 6.465-.006-.002Z" opacity=".8"/><path fill="#8DA3A1" d="m25.66 104.311-5.172-.071-1 6.648s5.077 1.086 9.807-.989l-.095-2.158a3.591 3.591 0 0 0-3.54-3.427v-.003Z"/><path fill="#8DA3A1" d="m12.402 104.544.998 4.204 6.089 2.137.999-6.647-8.086.306Z"/><path fill="#6E8482" d="M74.874 107.03c-2.217 8.45-6.186 29.788-1.839 63.714h42.77c.415-5.947-2.302-32.833 2.502-60.828.828-4.824-2.528-9.363-7.407-9.903a84.239 84.239 0 0 0-5.163-.422c-5.46-.263-13.1.143-17.914.58-2.833.259-5.465.825-7.51 1.376a7.694 7.694 0 0 0-5.436 5.483h-.002Z"/><path fill="#8DA3A1" d="M105.247 76.328c-1.646 7.441-4.151 17.76.949 22.727 0 0-1.633 6.452-15.496 6.452-12.669 0-3.705-6.453-3.705-6.453 4.81-2.272 5.75-13.34 4.445-19.12l13.81-3.606h-.003Z"/><path fill="#000" d="M91.43 79.938c.78 3.387.745 8.319-.212 12.262 1 .43 4.942-1.18 6.641-2.259 3.776-2.398 5.235-4.742 6.635-9.752.214-1.32.468-2.61.748-3.862L91.43 79.938Z" opacity=".2"/><path fill="#8DA3A1" d="M78.491 72.702c.97 2.533 3.02 4.35 5.074 5.188 3.09 1.26 5.074-1.458 4.585-4.61-.441-2.84-2.577-6.914-5.853-6.83-3.23.082-4.913 3.355-3.803 6.252h-.003Z"/><path fill="#000" d="M78.491 72.702c.97 2.533 3.02 4.35 5.074 5.188 3.089 1.26 5.073-1.458 4.585-4.61-.442-2.84-2.577-6.914-5.854-6.83-3.229.082-4.912 3.355-3.802 6.252h-.003Z" opacity=".2"/><path fill="#000" d="M91.067 61.558c-.586 4.365-3.314 7.6-6.088 7.228-2.775-.372-4.548-4.213-3.962-8.575.587-4.365 3.314-7.599 6.089-7.227 2.775.371 4.548 4.212 3.961 8.574Z"/><path fill="#8DA3A1" d="M110.134 66.683c-2.49 9.882-3.452 15.781-9.408 20.064-8.96 6.443-20.297-.187-20.776-10.55-.43-9.33 3.713-23.924 14.135-26.265 10.269-2.306 18.538 6.87 16.049 16.751Z"/><path fill="#000" d="M93.665 46.479c-5.935 1.278-12.507 6.075-6.847 9.592 5.663 3.516 18.424 4.077 18.424 4.077s-4.212 9.885 1.557 15.001c1.924-.96-2.186 7.68-2.186 7.68s2.934-.753 4.963-4.164c3.438-.875 13.675-17.265 6.839-21.954-1.282-9.592-14.78-11.948-22.75-10.23v-.002Z"/><path fill="#fff" d="M108.001 72.647a.337.337 0 0 1-.133-.03l-8.937-4.077a.32.32 0 1 1 .267-.582l8.937 4.077a.32.32 0 0 1-.132.612h-.002Z"/><path fill="#8DA3A1" d="M112.519 78.442c-1.834 2.059-4.423 3.095-6.656 3.21-3.359.172-4.228-3.025-2.617-5.825 1.451-2.52 4.945-5.643 7.989-4.494 2.999 1.134 3.382 4.755 1.284 7.11Z"/><path fill="#000" d="M73.032 170.744s-4.68 51.726-4.408 76.05c.283 25.299 5.008 96.467 5.008 96.467h24.116s-3.861-69.692-2.648-94.538c1.324-27.086 6.046-77.979 6.046-77.979H73.032Z"/><path fill="#000" d="M88.202 170.744s7.577 53.047 11.998 75.881c4.841 25.007 19.911 96.636 19.911 96.636h22.837s-11.027-69.61-13.53-94.369c-2.719-26.872-13.617-78.148-13.617-78.148H88.202ZM94.619 66.944c-.153.812-.703 1.4-1.229 1.313-.526-.09-.827-.82-.674-1.632.153-.811.703-1.4 1.229-1.312.526.087.827.82.674 1.631ZM84.618 64.594c-.154.812-.703 1.4-1.23 1.312-.525-.09-.826-.82-.673-1.631.153-.812.703-1.4 1.229-1.313.525.09.827.82.674 1.632ZM86.424 74.354h-.01c-.111-.005-2.7-.124-3.737-1.94a.264.264 0 0 1 .093-.356c2.582-1.579 5.768-5.549 5.8-5.588a.267.267 0 0 1 .373-.042c.113.09.132.255.042.371-.13.161-3.1 3.865-5.71 5.567.975 1.363 3.139 1.46 3.16 1.463.145.006.259.13.254.274a.263.263 0 0 1-.265.254v-.003ZM88.81 76.625a.235.235 0 0 1-.19-.28.245.245 0 0 1 .28-.197c3.533.596 5.65-1.619 5.671-1.642a.24.24 0 0 1 .341-.013c.095.09.098.242.005.342-.092.098-2.323 2.43-6.107 1.793v-.003ZM99.463 64.293a.464.464 0 0 1-.317-.282c-.777-1.99-2.508-2.338-2.526-2.34-.246-.037-.428-.3-.373-.564a.499.499 0 0 1 .571-.388c.093.016 2.262.448 3.227 2.92a.492.492 0 0 1-.582.652v.002ZM82.054 60.7a.472.472 0 0 1-.193-.095.482.482 0 0 1-.055-.68c1.722-2.08 3.926-1.874 4.022-1.866.258.016.449.263.417.532a.494.494 0 0 1-.534.432c-.074-.007-1.794-.147-3.17 1.513a.486.486 0 0 1-.487.167V60.7Z"/><path fill="#fff" d="M94.44 72.728c-.246 0-.492-.021-.74-.066-1.15-.203-2.17-.873-2.873-1.885-.837-1.204-1.154-2.786-.869-4.336.544-2.968 3.126-5 5.719-4.541 1.146.203 2.166.872 2.872 1.884.838 1.205 1.157 2.784.87 4.336-.492 2.683-2.64 4.608-4.977 4.608h-.002Zm.491-10.254c-2.032 0-3.908 1.708-4.344 4.083-.254 1.384.026 2.791.766 3.856.608.87 1.48 1.448 2.458 1.619 2.272.393 4.495-1.408 4.976-4.028.253-1.386-.027-2.791-.77-3.856-.607-.87-1.476-1.444-2.457-1.618a3.675 3.675 0 0 0-.631-.056h.002Z"/><path fill="#fff" d="M90.27 66.82a.323.323 0 0 1-.267-.142c-.98-1.463-2.223-.951-2.278-.93a.321.321 0 0 1-.42-.166.316.316 0 0 1 .16-.42c.016-.008 1.782-.764 3.071 1.16a.32.32 0 0 1-.264.498h-.003Z"/><path fill="#fff" d="M82.94 70.123c-.246 0-.495-.022-.743-.066-1.147-.203-2.17-.873-2.873-1.885-.837-1.205-1.154-2.786-.869-4.336.547-2.968 3.12-4.997 5.719-4.541 1.149.202 2.169.872 2.872 1.884.838 1.205 1.155 2.786.87 4.336-.492 2.683-2.64 4.608-4.977 4.608Zm.488-10.254c-2.032 0-3.908 1.708-4.344 4.083-.254 1.384.026 2.791.766 3.856.608.87 1.48 1.445 2.458 1.619 2.27.406 4.495-1.408 4.976-4.028.253-1.386-.027-2.791-.767-3.856-.607-.87-1.48-1.445-2.457-1.619a3.674 3.674 0 0 0-.632-.055Z"/><path fill="#4E6462" d="m106.194 99.057 9.236 1.107c3.176.382 5.533 3.115 5.427 6.305-.47 14.355-2.378 34.092-.851 64.275.769 15.222 22 89.973 22 89.973l-31.574 3.677s-14.938-36.655-20.947-89.556c-2.58-22.687-.156-43.25-.156-43.25l16.865-32.531Z"/><path fill="#4E6462" d="m106.194 99.056 9.235 1.107c3.177.382 5.534 3.116 5.428 6.305-.47 14.355-2.378 34.092-.851 64.276.769 15.222 22.264 89.972 22.264 89.972l-31.838 3.677s-14.938-36.654-20.947-89.556c-2.58-22.687-.156-43.249-.156-43.249l16.865-32.532Z" opacity=".8"/><path fill="#6E8482" d="M113.786 117.378c0 2.156 1.66 13.116 5.75 20.676.111-5.154.301-9.866.513-14.2l-6.263-6.476ZM74.04 115.463c-1.187 2.257-4.604 11.843-6.343 22.3a43.707 43.707 0 0 0 2.284-1.706c2.814-2.306 5.208-4.813 7.367-7.399.14-.171.28-.35.423-.521l-3.729-12.674h-.002Z" opacity=".2"/><path fill="#4E6462" d="m86.73 100.001-5.448.654c-5.417.651-9.555 5.122-9.764 10.559-.619 16.116-1.887 48.308-2.574 59.531-.93 15.212-11.112 89.973-11.112 89.973l23.926 2.29s3.321-37.608 7.724-88.169c1.884-21.627.808-45.113.808-45.113l-3.562-29.722.003-.003Z"/><path fill="#4E6462" d="m86.73 100-5.448.654c-5.417.651-9.556 5.122-9.764 10.559-.619 16.116-1.887 48.308-2.574 59.531-.93 15.212-11.112 89.973-11.112 89.973l23.925 2.29s3.322-37.608 7.725-88.169c1.884-21.627.808-45.113.808-45.113l-3.562-29.722.003-.003Z" opacity=".8"/><path fill="#8DA3A1" d="m105.633 174.983 14.629 12.533-9.992-4.873-4.637-7.66Z" opacity=".2"/><path fill="#4E6462" d="M120.319 103.841c.628.86 1.094 1.542 1.617 2.307l1.488 2.243c.972 1.5 1.913 3.013 2.827 4.549 1.834 3.066 3.573 6.211 5.161 9.495 1.575 3.295 3.039 6.703 4.196 10.404a44.482 44.482 0 0 1 1.43 5.82c.359 2.027.552 4.251.497 6.457-.154 4.357-1.084 8.314-2.339 11.97-1.258 3.658-2.854 7.035-4.587 10.264a99.09 99.09 0 0 1-5.687 9.241 114.643 114.643 0 0 1-3.134 4.368 95.418 95.418 0 0 1-1.652 2.135 71.082 71.082 0 0 1-1.799 2.188l-10.28-8.899c.396-.464.938-1.126 1.406-1.719l1.437-1.863a93.392 93.392 0 0 0 2.749-3.849 85.245 85.245 0 0 0 4.793-8.023c1.411-2.723 2.606-5.501 3.473-8.232.861-2.725 1.382-5.419 1.366-7.802-.024-2.243-.6-4.797-1.567-7.515-.952-2.696-2.236-5.456-3.705-8.166a102.195 102.195 0 0 0-4.876-8.031c-.887-1.31-1.799-2.61-2.735-3.883l-1.419-1.89a60.621 60.621 0 0 0-1.387-1.755l12.721-9.816.006.002Z"/><path fill="#4E6462" d="M120.319 103.841c.629.86 1.094 1.542 1.617 2.307l1.488 2.243c.972 1.5 1.913 3.013 2.827 4.549 1.834 3.066 3.573 6.211 5.161 9.495 1.575 3.295 3.039 6.703 4.197 10.404a44.643 44.643 0 0 1 1.429 5.82c.36 2.027.553 4.251.497 6.457-.153 4.357-1.083 8.314-2.339 11.97-1.257 3.658-2.854 7.035-4.587 10.264a99.09 99.09 0 0 1-5.687 9.241 114.643 114.643 0 0 1-3.134 4.368 92.543 92.543 0 0 1-1.652 2.135 69.65 69.65 0 0 1-1.799 2.188l-10.28-8.899a59.67 59.67 0 0 0 1.406-1.719l1.438-1.863a93.368 93.368 0 0 0 2.748-3.849 85.47 85.47 0 0 0 4.794-8.023c1.411-2.723 2.605-5.501 3.472-8.232.861-2.725 1.382-5.419 1.366-7.802-.024-2.243-.6-4.797-1.567-7.515-.951-2.696-2.236-5.456-3.705-8.166a102.485 102.485 0 0 0-4.875-8.031c-.888-1.31-1.8-2.61-2.735-3.883l-1.419-1.89a62.325 62.325 0 0 0-1.388-1.755l12.722-9.816.005.002Z" opacity=".8"/><path fill="#000" d="M107.206 120.653c-.606 1.484-2.344 2.378-3.888 1.996-1.543-.383-2.304-1.898-1.699-3.382.605-1.484 2.344-2.378 3.887-1.996 1.544.383 2.305 1.898 1.7 3.382Z"/><path fill="#4E6462" d="M107.205 120.653c-.605 1.484-2.344 2.378-3.887 1.996-1.543-.383-2.304-1.898-1.699-3.382.605-1.484 2.344-2.378 3.887-1.996 1.543.383 2.305 1.898 1.699 3.382Z" opacity=".2"/><path fill="#000" d="M104.016 119.149a.373.373 0 0 1-.22-.072.374.374 0 0 1-.084-.524c7.23-10.032 5.206-18.955 5.184-19.044a.377.377 0 0 1 .278-.454.37.37 0 0 1 .454.277c.022.092 2.138 9.334-5.306 19.658a.371.371 0 0 1-.306.156v.003ZM78.8 114.081a.376.376 0 0 1-.374-.345c-.79-9.851 4.44-13.483 4.664-13.633a.376.376 0 1 1 .423.622c-.05.034-5.087 3.566-4.334 12.95a.379.379 0 0 1-.347.406h-.031Z"/><path fill="#000" d="M106.152 120.389c-.605 1.484-2.343 2.377-3.887 1.995-1.543-.382-2.304-1.898-1.699-3.382.605-1.484 2.344-2.377 3.887-1.995 1.544.382 2.305 1.898 1.699 3.382Z"/><path fill="#4E6462" d="M106.152 120.388c-.605 1.484-2.344 2.378-3.887 1.995-1.543-.382-2.305-1.897-1.699-3.381.605-1.484 2.344-2.378 3.887-1.996 1.543.382 2.304 1.898 1.699 3.382Z" opacity=".4"/><path fill="#4E6462" d="M104.518 119.868c-.317.78-1.234 1.25-2.045 1.049-.811-.2-1.21-.996-.893-1.776.317-.78 1.234-1.25 2.045-1.049.811.2 1.21.996.893 1.776Z" opacity=".4"/><path fill="#000" d="M81.762 137.004a.378.378 0 1 1 0-.754c1.467 0 2.728-1.189 2.81-2.652l.724-12.646c.105-1.832-.516-3.559-1.75-4.861-1.229-1.299-2.915-2.014-4.746-2.014-3.824 0-7.111 3.103-7.328 6.917l-.724 12.647c-.04.698.196 1.354.66 1.847a2.459 2.459 0 0 0 1.806.762.378.378 0 1 1 0 .754 3.207 3.207 0 0 1-2.355-.996 3.188 3.188 0 0 1-.864-2.407l.724-12.647c.24-4.204 3.866-7.625 8.081-7.625 2.04 0 3.922.798 5.296 2.248 1.376 1.455 2.069 3.379 1.953 5.419l-.725 12.647c-.105 1.853-1.701 3.361-3.562 3.361Z"/><path fill="#000" d="M73.84 136.626c-.034.609-.343 1.099-.69 1.099-.345 0-.597-.493-.562-1.099.034-.609.343-1.099.69-1.099.346 0 .597.493.562 1.099ZM82.385 136.626c-.034.609-.343 1.099-.69 1.099-.345 0-.596-.493-.562-1.099.034-.609.344-1.099.69-1.099s.597.493.563 1.099Z"/><path fill="#8DA3A1" d="M6.204 45.09h58.562a2.514 2.514 0 0 0 2.517-2.51V21.51a2.514 2.514 0 0 0-2.517-2.511H6.204a2.514 2.514 0 0 0-2.517 2.51v21.07a2.514 2.514 0 0 0 2.517 2.51Z"/><path fill="#8DA3A1" d="M49.643 44.337 61.367 52.9c.564.412 1.302-.21.988-.833l-3.883-7.729s-5.119-3.871-8.83 0Z"/><path fill="#2D2745" d="M35.12 36.681h17.302c.284 0 .284-.44 0-.44H35.119c-.284 0-.284.44 0 .44ZM52.421 32.019h4.957c.285 0 .285-.441 0-.441h-4.957c-.284 0-.284.44 0 .44ZM35.12 32.02c3.427-.013 6.856-.016 10.283-.009.967.002 1.935.006 2.902.01.284 0 .284-.44 0-.442-3.423-.013-6.847-.016-10.27-.009-.972.002-1.945.006-2.917.01-.285 0-.285.442 0 .44h.001ZM46.881 27.359c2.717.018 5.436.022 8.153.012l2.345-.012c.284-.002.284-.443 0-.441a802.55 802.55 0 0 1-10.496 0c-.285-.002-.285.44 0 .44h-.002ZM35.12 27.359h7.735c.285 0 .285-.441 0-.441H35.12c-.284 0-.284.44 0 .44Z"/><path fill="#DA651D" d="M29.814 33.837c1.137-4.81-1.848-9.628-6.67-10.763-4.821-1.135-9.652 1.843-10.79 6.652-1.138 4.81 1.848 9.628 6.67 10.763 4.82 1.135 9.652-1.843 10.79-6.652Z"/><path fill="#fff" d="M27.16 30.13c-.33-2.845-2.74-3.216-4.231-2.526-1.491.69-1.836 2.425-1.836 2.425s-.345-1.735-1.836-2.425c-1.492-.691-3.9-.32-4.231 2.526-.464 4.007 6.065 6.922 6.065 6.922s6.53-2.915 6.065-6.922h.003Z"/><path fill="#2D2745" d="M15.859 33.004h4.264c.284 0 .284-.44 0-.44H15.86c-.285 0-.285.44 0 .44ZM22.064 33.004h4.266c.284 0 .284-.44 0-.44h-4.266c-.284 0-.284.44 0 .44Z"/><path fill="#2D2745" d="m20.337 32.843.511-1.967c.072-.275-.355-.392-.426-.117l-.511 1.966c-.072.275.355.393.426.118ZM21.818 34.608l.458-1.765c.072-.275-.355-.393-.426-.118l-.458 1.766c-.072.275.355.392.426.117Z"/><path fill="#2D2745" d="m21.818 34.49-.971-3.731c-.07-.275-.498-.159-.426.118l.971 3.73c.07.275.498.159.426-.118Z"/><path fill="#fff" d="M27.019 74.4 13.99 92.835c-2.516 3.561-7.452 4.413-11.022 1.903a7.836 7.836 0 0 1-3.235-5.103 7.835 7.835 0 0 1 1.327-5.89l13.028-18.436c2.516-3.561 7.452-4.412 11.022-1.903a7.836 7.836 0 0 1 3.234 5.103A7.835 7.835 0 0 1 27.02 74.4Z"/><path fill="#54B08D" d="m27.019 74.4-6.543 9.26c-4.915-.833-10.671-4.652-12.957-9.054l6.57-9.297c2.515-3.561 7.452-4.412 11.022-1.903a7.836 7.836 0 0 1 3.234 5.103A7.835 7.835 0 0 1 27.02 74.4Z"/><path fill="#fff" d="M11.737 73.224c1.097-1.55 2.19-3.1 3.287-4.653.555-.785 1.065-1.642 1.77-2.306a6.127 6.127 0 0 1 2.247-1.34 6.072 6.072 0 0 1 2.928-.255c.5.085.713-.677.211-.762a7.01 7.01 0 0 0-5.343 1.295c-.843.635-1.416 1.439-2.019 2.293l-1.688 2.388-2.078 2.939c-.293.416.394.812.685.398v.003Z"/><path fill="#8DA3A1" d="M33.234 90.92c.573-5.014-3.037-9.543-8.064-10.115-5.028-.573-9.568 3.029-10.142 8.043-.573 5.015 3.037 9.544 8.064 10.116 5.028.572 9.568-3.03 10.142-8.044Z"/><path fill="#fff" d="M24.142 97.138c4.93-1.138 8-6.047 6.86-10.964-1.14-4.917-6.062-7.98-10.991-6.843-4.93 1.138-8.001 6.047-6.86 10.964 1.14 4.917 6.061 7.98 10.99 6.843Z"/><path fill="#2D2745" d="M29.183 83.092a8.832 8.832 0 0 1 1.189 7.955c-.978 2.881-3.483 5.08-6.459 5.723a8.84 8.84 0 0 1-5.261-.499c-.198-.084-.423-.058-.542.143-.098.166-.055.458.143.54 3.266 1.379 7.024.907 9.809-1.305 2.423-1.924 3.774-5.013 3.552-8.094a9.597 9.597 0 0 0-1.745-4.86c-.293-.412-.98-.017-.684.397h-.002Z"/><path fill="#2D2745" d="M26.809 86.72c-4.054.904-8.1 1.835-12.15 2.74-.498.11-.289.872.21.76 4.054-.903 8.1-1.834 12.151-2.738.497-.11.288-.872-.211-.762Z"/></g><defs><clipPath id="clip0_8006_66831"><path fill="#fff" d="M0 0h275v180H0z"/></clipPath></defs></svg>